<svg width="821" height="688" viewBox="0 0 821 688" fill="none" xmlns="http://www.w3.org/2000/svg">
<g id="undraw_visual_data_re_mxxo 1" clip-path="url(#clip0_3_2)">
<path id="bar2" d="M179.295 684.808V304.889C179.295 302.549 180.224 300.305 181.878 298.65C183.532 296.996 185.775 296.066 188.113 296.066H227.465C229.804 296.066 232.047 296.996 233.701 298.65C235.355 300.305 236.284 302.549 236.284 304.889V685.798L179.295 684.808Z" fill="#3F3D56"/>
<path id="bar3" d="M309.269 685.998V383.911C309.269 381.572 310.198 379.328 311.852 377.673C313.505 376.018 315.748 375.089 318.087 375.089H357.439C359.778 375.089 362.021 376.018 363.674 377.673C365.328 379.328 366.257 381.572 366.257 383.911V685.348L309.269 685.998Z" fill="#3F3D56"/>
<path id="linechart" d="M78.315 327.094C77.7358 327.094 77.169 326.926 76.6831 326.61C76.1972 326.295 75.813 325.846 75.5769 325.316C75.3408 324.787 75.2629 324.201 75.3527 323.628C75.4424 323.056 75.696 322.522 76.0827 322.09L207.661 175.257L337.153 248.007L467.415 23.4451L600.116 132.722C600.42 132.972 600.672 133.28 600.858 133.628C601.043 133.976 601.159 134.357 601.197 134.749C601.235 135.142 601.196 135.538 601.081 135.915C600.966 136.292 600.778 136.643 600.527 136.947C600.277 137.252 599.969 137.504 599.621 137.689C599.273 137.874 598.892 137.989 598.5 138.027C598.108 138.065 597.712 138.025 597.335 137.91C596.958 137.795 596.608 137.607 596.304 137.356L469.057 32.5707L339.373 256.137L208.917 182.846L80.5491 326.096C80.2681 326.411 79.9238 326.662 79.5387 326.834C79.1537 327.006 78.7367 327.095 78.315 327.094Z" fill="#3F3D56"/>
<path id="point1" d="M77.8161 352.101C93.2769 352.101 105.81 339.562 105.81 324.093C105.81 308.625 93.2769 296.085 77.8161 296.085C62.3553 296.085 49.8218 308.625 49.8218 324.093C49.8218 339.562 62.3553 352.101 77.8161 352.101Z" fill="#6C63FF"/>
<path id="point2" d="M207.789 207.06C223.25 207.06 235.784 194.52 235.784 179.052C235.784 163.583 223.25 151.043 207.789 151.043C192.329 151.043 179.795 163.583 179.795 179.052C179.795 194.52 192.329 207.06 207.789 207.06Z" fill="#CCCCCC"/>
<path id="point3" d="M337.763 280.081C353.224 280.081 365.757 267.541 365.757 252.073C365.757 236.604 353.224 224.064 337.763 224.064C322.302 224.064 309.769 236.604 309.769 252.073C309.769 267.541 322.302 280.081 337.763 280.081Z" fill="#E6E6E6"/>
<path id="point4" d="M467.736 56.0161C483.197 56.0161 495.731 43.4765 495.731 28.0081C495.731 12.5396 483.197 0 467.736 0C452.275 0 439.742 12.5396 439.742 28.0081C439.742 43.4765 452.275 56.0161 467.736 56.0161Z" fill="#6C63FF"/>
<path id="point5" d="M717.685 264.611C733.146 264.611 745.679 252.072 745.679 236.603C745.679 221.135 733.146 208.595 717.685 208.595C702.224 208.595 689.691 221.135 689.691 236.603C689.691 252.072 702.224 264.611 717.685 264.611Z" fill="#6C63FF"/>
<path id="bar5" d="M569.215 684.652V246.772C569.215 241.156 573.164 236.603 578.034 236.603H617.386C622.256 236.603 626.204 241.155 626.204 246.772V685.798L569.215 684.652Z" fill="#3F3D56"/>
<path id="bar1" d="M49.3209 685.247V473.845C49.3209 471.135 53.2691 468.936 58.1391 468.936H97.4911C102.361 468.936 106.309 471.137 106.309 473.845V685.798L49.3209 685.247Z" fill="#3F3D56"/>
<path id="ground" d="M820.001 688H0.999795C0.734633 688 0.480331 687.895 0.292833 687.707C0.105335 687.519 0 687.265 0 687C0 686.734 0.105335 686.48 0.292833 686.292C0.480331 686.105 0.734633 685.999 0.999795 685.999H820C820.265 685.999 820.52 686.105 820.707 686.292C820.895 686.48 821 686.734 821 687C821 687.265 820.895 687.519 820.707 687.707C820.52 687.895 820.265 688 820 688H820.001Z" fill="#E6E6E6"/>
<path id="bar4" d="M439.241 684.503V187.59C439.241 181.217 443.189 176.051 448.059 176.051H487.411C492.281 176.051 496.229 181.217 496.229 187.59V685.798L439.241 684.503Z" fill="#6C63FF"/>
<g id="man">
<path id="Vector" d="M758.965 686.638L719.443 686.636V686.136C719.443 682.054 721.064 678.14 723.949 675.253C726.834 672.367 730.746 670.746 734.826 670.745L758.966 670.746L758.965 686.638Z" fill="#2F2E41"/>
<path id="Vector_2" d="M711.975 686.638L672.452 686.636V686.136C672.453 682.054 674.073 678.14 676.958 675.253C679.843 672.367 683.756 670.746 687.836 670.745L711.976 670.746L711.975 686.638Z" fill="#2F2E41"/>
<path id="Path 1507" d="M707.787 454.787C718.265 456.05 745.059 446.486 746.511 461.035C760.302 501.652 759.892 657.348 759.892 657.348L738.897 658.348C738.897 658.348 722.119 534.638 714.186 508.172C710.205 540.34 710.902 663.35 710.902 663.35L691.906 664.35C691.906 664.35 674.867 559.602 674.769 528.858C672.699 506.338 677.777 472.966 675.604 451.196C685.993 454.49 696.928 455.71 707.787 454.787Z" fill="#3F3D56"/>
<path id="Path 1508" d="M672.144 336.953C667.942 328.358 662.809 320.25 656.838 312.776C655.59 311.316 654.454 309.765 653.438 308.135C651.289 304.404 650.649 300.022 649.289 295.941C645.49 284.498 636.012 275.305 633.702 263.472C632.862 259.171 625.768 271.672 627.634 277.006C630.963 286.658 631.393 296.881 635.632 306.204C639.871 315.527 644.85 324.469 648.509 334.002C650.589 339.414 652.249 345.005 655.298 350.007C658.347 355.008 663.106 359.199 668.855 359.95C668.816 356.324 669.367 352.716 670.485 349.267C671.735 345.325 673.954 340.684 672.144 336.953Z" fill="#9E616A"/>
<path id="Path 1509" d="M735.042 343.435C734.785 336.362 735.888 329.305 738.291 322.649C739.211 320.098 740.291 317.507 740.201 314.797C740.071 312.276 738.871 309.965 737.781 307.685C734.022 299.832 731.382 291.51 728.783 283.208L723.784 267.553C722.154 266.357 731.672 265.943 733.702 268.753C740.341 277.976 745.369 288.569 750.628 298.642C751.97 301.042 753.113 303.548 754.048 306.134C755.332 310.325 755.94 314.695 755.847 319.078C755.847 327.27 754.768 335.433 753.648 343.555C752.938 348.646 752.008 354.188 748.159 357.559C744.16 352.437 740.141 347.436 735.042 343.435Z" fill="#9E616A"/>
<path id="Vector_3" d="M627.054 274.445C632.024 274.445 636.052 270.414 636.052 265.442C636.052 260.47 632.024 256.439 627.054 256.439C622.085 256.439 618.056 260.47 618.056 265.442C618.056 270.414 622.085 274.445 627.054 274.445Z" fill="#A0616A"/>
<path id="Vector_4" d="M727.034 270.443C732.003 270.443 736.032 266.413 736.032 261.441C736.032 256.469 732.003 252.438 727.034 252.438C722.064 252.438 718.036 256.469 718.036 261.441C718.036 266.413 722.064 270.443 727.034 270.443Z" fill="#A0616A"/>
<path id="Vector_5" d="M748.899 372.883C749.777 372.079 756.935 330.197 756.893 329.253C756.782 324.094 741.046 318.2 737.897 320.251C734.926 322.185 729.752 344.382 726.422 348.424L722.9 342.257H694.906L693.209 345.41C689.536 343.196 686.231 341.155 685.053 340.479C684.648 340.205 684.207 339.987 683.742 339.834C680.832 339.183 678.102 337.899 675.744 336.073C673.444 334.302 662.772 315.76 659.913 316.25C656.684 316.79 645.791 326.213 645.916 335.255C647.287 335.226 665.126 370.913 665.376 372.243C666.746 377.865 671.269 459.848 672.728 463.669C679.453 463.019 674.144 461.859 680.653 463.669C687.661 465.62 695.06 463.509 702.288 462.729C705.298 462.431 708.322 462.297 711.346 462.329C722.344 462.379 738.041 462.989 748.689 465.72C748.749 458.738 742.62 443.634 740.35 437.042C740.053 435.072 740.063 433.067 740.38 431.1C740.671 428.689 746.525 375.549 748.899 372.883Z" fill="#E6E6E6"/>
<path id="Vector_6" d="M755.839 674.75L743.582 674.749L737.751 627.449H755.841L755.839 674.75Z" fill="#9E616A"/>
<path id="Vector_7" d="M708.849 674.75L696.591 674.749L690.761 627.449H708.851L708.849 674.75Z" fill="#9E616A"/>
<path id="Ellipse 307" d="M708.607 335.331C720.065 335.331 729.353 326.038 729.353 314.575C729.353 303.111 720.065 293.819 708.607 293.819C697.149 293.819 687.861 303.111 687.861 314.575C687.861 326.038 697.149 335.331 708.607 335.331Z" fill="#9E616A"/>
<path id="Path 1512" d="M691.742 293.867C691.509 293.237 691.457 292.554 691.591 291.896C691.725 291.238 692.041 290.63 692.502 290.142C693.02 289.734 693.708 289.581 694.263 289.192C695.053 288.528 695.699 287.71 696.162 286.788C697.579 284.804 699.653 283.386 702.016 282.786C704.378 282.186 706.877 282.442 709.069 283.51C712.497 285.305 714.567 288.9 717.616 291.321C719.164 292.575 720.96 293.506 722.517 294.76C725.636 297.456 727.854 301.044 728.87 305.041C729.881 309.011 730.471 313.076 730.631 317.169C730.794 318.397 730.746 319.644 730.489 320.856C730.174 321.873 729.703 322.834 729.094 323.707C725.96 328.457 721.829 332.772 716.653 335.223C711.476 337.675 705.18 338.074 700.075 335.508C699.561 335.3 699.119 334.947 698.803 334.491C698.513 333.798 698.443 333.031 698.604 332.297C698.881 329.393 698.307 326.471 696.952 323.888C696.002 321.988 694.577 320.353 693.817 318.387C693.111 316.186 692.808 313.874 692.924 311.565C692.834 305.582 693.24 299.625 691.742 293.867Z" fill="#2D293D"/>
</g>
</g>
<defs>
<clipPath id="clip0_3_2">
<rect width="821" height="688" fill="white"/>
</clipPath>
</defs>
</svg>
